<svg id="Слой_2" data-name="Слой 2" xmlns="http://www.w3.org/2000/svg" viewBox="0 0 500 500"><defs><style>.cls-1{fill:#fff;}</style></defs><path class="cls-1" d="M494.12,102.19v293.7c-1.26,1.45-1,3.15-.8,4.86-4.92,21.51-21.23,35.13-43,35.14q-200.21.14-400.41,0c-25.22,0-43.91-18.77-43.94-44q-.17-141.81,0-283.62a42.51,42.51,0,0,1,4.36-19.78C18.83,71.9,32.72,64.07,51.15,64.06q115.84,0,231.67,0,82.94,0,165.88,0c15.24,0,27.77,5.48,37.1,17.77C490.41,87.87,492.38,95,494.12,102.19ZM444.9,93.85l-.79-1H54.73c1.68,1.52,2.72,2.38,3.68,3.33Q152.87,189.8,247.25,283.5c2.88,2.86,4.26,3.1,7.3.05Q347.75,190,441.21,96.75A38.6,38.6,0,0,1,444.9,93.85ZM54.77,405.91l1,1.21H444.92c-1-1.08-1.61-1.72-2.22-2.33Q376.84,338.9,311,273c-2.53-2.54-3.74-1.94-5.9.25-14,14.12-28,28.12-42.09,42.15-8.33,8.3-15.82,8.28-24.23-.05-14.22-14.09-28.52-28.09-42.56-42.35-2.91-3-4.3-3-7.24,0Q123.95,338.31,58.63,403.39A21.93,21.93,0,0,1,54.77,405.91Zm-20-19.32c.82-.69,1.2-1,1.53-1.29Q103,318.61,169.76,252c2.86-2.84,1.25-3.93-.64-5.8Q103.62,181.3,38.19,116.34A17,17,0,0,1,36,112.77l-1.28,1ZM465.39,113.32c-.93.76-1.31,1-1.64,1.35q-66.39,66.39-132.84,132.71c-2.6,2.59-1.46,3.69.4,5.55Q396.91,318.44,462.45,384c.8.8,1.41,2,2.94,2.14Z"/><path class="cls-1" d="M494.12,400.66l-.39.15-.41-.06c-.24-1.71-.46-3.41.8-4.86Z"/></svg>