<svg id="Слой_2" data-name="Слой 2" xmlns="http://www.w3.org/2000/svg" viewBox="0 0 500 500"><defs><style>.cls-1{fill:#fff;}</style></defs><path class="cls-1" d="M127.56,39.43,98.5,60.84,48,110.8,16.05,189v35.93s21.28,11.78,24.34,13.3,31.42,22.62,31.42,22.62v39.57s3.75,21.93,6.81,21.93,15.3,32.11,15.3,32.11-8.55,29.52-8.1,30.82-7.2,38-7.2,38l43.86,29.39s54,28.73,57.08,28.73,48.94,12.23,48.94,12.23l62.7-3.06,56.58-18.35s56.59-33.65,58.12-35.17,52-61.18,52-61.18l27.21-81.7s3.62-12.6,6.5-24.75c2.48-10.47,4.41-20.59,3-22-3.06-3.06-12.44,19.12-12.44,19.12L468.6,255.07l-10.71-30.59s-12.23-35.17-13.76-36.7-10.71-44.35-10.71-44.35-1.53-38.24-3.05-38.24-1.53-13.76-1.53-13.76S410.48,67,405.9,67,381.43,70,381.43,70l-35.6-12L334,56.26s-10.71,6.11-12.24,6.11S286.61,70,286.61,70l-26,14.87L250.1,110.8,230,117.43l-9.17,16.82-10.71,3.06s-15.29-13.76-16.82-13.76-19.88,3-19.88,3L156.62,148s16.82,7.64,18.35,9.17,19.88-1.53,19.88-1.53l24.47,30.59s29.67,19.52,36.24,20.46,61.64,4,61.64,4S326.37,223,329.43,226s24.47,0,26,1.53,7.58,19.88,9.14,22.94,55.09,36.7,55.09,39.76-7.05,19.56-7.05,19.56-26.6,30.91-28.12,34-13.77,26-15.3,26S334,391.18,334,395.76s-10.71,19.89-10.71,19.89l-27.52,9.17-12.24,21.41L260.61,461.3s-10.31-6.75-10.51-8.62,7.45-26.33,7.45-26.33l1.53-29.06s13.77-38.23,13.77-41.29-6.12-15.49-6.12-15.49-33.65-41.09-33.65-45.68S227,249,227,247.42s7.64-32.12,1.53-29.06-26-12.23-26-12.23l-45.88-30.59s-26-18.35-27.53-19.88-22.48-40.79-21.18-44.86,12.35-46.73,12.35-46.73Z"/><path class="cls-1" d="M499.55,250.37c.59,137-111.89,249.78-250.59,249.14C112.48,498.87-.2,387.78.66,248.29,1.5,112.15,112.28-.1,251.84.6,387.66,1.28,500.22,112.07,499.55,250.37ZM250.35,484.64c8.62-.44,17.29-.44,25.84-1.45,8.84-1.05,17.6-2.94,26.34-4.75,5.94-1.23,11.82-2.83,17.67-4.47a102.71,102.71,0,0,0,11.34-3.81c6.31-2.57,12.64-5.14,18.72-8.21,8.69-4.38,17.6-8.55,25.63-14A282.39,282.39,0,0,0,407,424a282.25,282.25,0,0,0,26.48-28.17c6.24-7.44,11.58-15.69,16.74-23.94,4.49-7.17,8.39-14.75,12.15-22.35A155.63,155.63,0,0,0,469,333.32c2.92-8.07,6-16.12,8.19-24.4a254.6,254.6,0,0,0,4.85-25.05c.3-1.84-.27-4.56-1.52-5.77-4.72-4.58-9.91-8.68-14.88-13-2.51-2.18-5.68-4-7.25-6.79a39.25,39.25,0,0,1-4.81-13.11c-.85-5.44-.11-11.11-.41-16.67-.22-4.14-.26-8.54-1.73-12.3s-4.56-7.24-7.13-10.67c-4.25-5.66-8.09-11.59-10.24-18.34a78.83,78.83,0,0,1-3.61-32.4,39.88,39.88,0,0,0-5.68-25.35c-3-5-4.93-10.34-4.2-16.2a101.58,101.58,0,0,1,2.65-12.51c.74-2.92,2.72-6,.18-8.63-5.26-5.56-10.81-10.85-16.28-16.21-2.08-2-4.39-3.7-7.56-2.81-5.55,1.54-11.11,3.08-16.64,4.75-7.45,2.25-15,3.4-21.86-1.19a153,153,0,0,1-13.77-10.92c-3.28-2.79-5.28-3-9.12-1-7.8,4.06-16,6.88-24.91,7.22a14.16,14.16,0,0,0-6.9,1.77C300,77.78,293,80.17,285.86,82.16c-4.45,1.24-9.05,2-13.51,3.14a5.89,5.89,0,0,0-3.4,2.42c-2.38,4.3-4.46,8.78-6.63,13.21-3.58,7.32-8.94,13-16.42,16.23a15.38,15.38,0,0,0-8.49,8.72c-3.14,7.48-7.65,13.93-14.72,18.32-4.11,2.55-12.87,2.56-16.52-.61-4.5-3.9-8.67-8.18-12.9-12.38-2.08-2.06-4.21-3.26-7.27-2.24-7.55,2.5-12.8,7.81-17.37,14a3.37,3.37,0,0,0-.39,2.37c.78,4.27,8.59,8.27,12.52,6.46q4.43-2,8.81-4.16c5.53-2.7,12.52-1.67,15.92,3.34,2.77,4.06,4.66,8.81,6.41,13.45s2.68,9.63,7.5,12.24S229,181.4,233.63,184c4.42,2.41,9.13,4.54,12.94,7.71,6.19,5.13,12.75,8,20.92,7.82,11.89-.28,23.79,0,35.69.06,5.68,0,10.88,1.63,15,5.63,3.81,3.74,7.27,7.82,10.8,11.83,1.65,1.88,3.21,3.53,6.08,2.81a83.38,83.38,0,0,1,11.38-2.46c5.7-.59,10.45,1.6,14,6.22a33,33,0,0,1,6.88,17.32c.41,4.39,3,6.93,6.7,8.83,8.28,4.23,16.71,8.23,24.67,13,8.72,5.24,16.93,11.36,23.72,19,4,4.53,7.75,9.62,5.58,16.11a35.57,35.57,0,0,1-6.12,11.52c-7.17,8.49-15.16,16.3-22.34,24.79a144.88,144.88,0,0,0-12.06,17.16c-1.55,2.5-1.6,5.89-2.9,8.6-5.67,11.84-15,20.67-24.86,28.93-4.43,3.73-9.86,6.3-14.87,9.35-3.34,2-5.93,4.41-6.4,8.74a12.8,12.8,0,0,1-2.71,6.21,35.48,35.48,0,0,1-25,13.56c-5.21.55-9,2.43-10.9,7.49-1,2.64-2.19,5.2-3.23,7.82-2.12,5.36-4,10.81-8.57,14.78-7.83,6.78-16.18,12-27.19,10.85a17.85,17.85,0,0,1-16-20.84,50.5,50.5,0,0,1,3.44-11.46c3.44-7.66,6.94-15.15,3.3-23.77a10.55,10.55,0,0,1-.28-3.45c-.87-17.16,6.16-32,13.25-47,4-8.53,5.78-9.8-1.54-17.3-4.11-4.2-8.55-8.1-12.95-12a73.38,73.38,0,0,1-18.13-25.06c-3.5-7.73-6.76-15.58-10.1-23.38-1.14-2.68-2.65-5.3-3.24-8.11-2.23-10.54-.26-20.91,1.69-31.27.9-4.85,1.75-9.73,2.34-14.62.31-2.62-.74-4.52-3.75-5.3-7.26-1.89-13.3-5.95-18.79-11-7-6.43-12.68-14.39-21.8-18.18-6.94-2.89-13.86-5.91-21-8.23-6.54-2.12-13.11-4-18.16-8.91-4.73-4.58-9.59-9.14-13.6-14.32a143.52,143.52,0,0,1-13.53-20.38c-4.34-8.21-6-17.34-6.93-26.66-1.65-16.21,1.58-31.32,8.49-45.87a98.78,98.78,0,0,0,4-10.16c.22-.63-.5-1.59-.79-2.4a8.67,8.67,0,0,0-2.12.83,130.62,130.62,0,0,0-10.46,8c-9.57,8.77-19.3,17.41-28.28,26.75A194.88,194.88,0,0,0,58.31,115.4,205.6,205.6,0,0,0,44.81,137,229,229,0,0,0,34,160c-3.32,8.13-6.15,16.48-8.85,24.85-1.89,5.88-3.39,11.91-4.73,17.95A70.29,70.29,0,0,0,18.83,215a5.11,5.11,0,0,0,2.41,3.78c9.61,5.13,19.42,9.86,29,15,9.18,5,17.52,11.13,23.87,19.54C81.77,263.46,83.22,275,81,287.19c-.7,3.83-2.08,7.58-2.32,11.41a20.94,20.94,0,0,0,1.43,9.78c1.82,3.93,4.9,7.28,7.34,10.94,2.78,4.17,5.94,8.17,8,12.68a74.63,74.63,0,0,1,4.85,15.23c1.23,5.68,1.29,11.48-1.32,17A47.11,47.11,0,0,0,94.61,388c.61,9.2-2,18.07-5.19,26.7-1,2.55-1.38,4.89,1.31,7,5,4,9.45,8.66,14.61,12.39,9.84,7.1,19.65,14.36,30.16,20.37a208.69,208.69,0,0,0,31.06,14.37A261.11,261.11,0,0,0,203,479.79,200.55,200.55,0,0,0,250.35,484.64Zm0-468.78-.07-1C239,16,227.72,17,216.46,18.33c-6.55.81-13.06,2.14-19.51,3.56-6,1.32-12,3-18,4.66a86.58,86.58,0,0,0-9.54,3.28c-6.29,2.58-12.45,5.51-18.79,8a14.73,14.73,0,0,0-8.48,7.92c-2.27,4.83-4.89,9.5-7.11,14.36q-6,13.16-11.62,26.46c-1.29,3.08-2.72,6.37-2.84,9.6-.33,8.6-.65,17.29.29,25.81a43.41,43.41,0,0,0,7.9,20.36c3.59,5,6.89,10.35,11,14.9a63.91,63.91,0,0,0,13.44,11.59c4.36,2.67,9.78,3.54,14.64,5.45,6.23,2.44,12.51,4.86,18.53,7.77,7.85,3.8,13.86,10,19.92,16.15,5.34,5.39,10.94,10,18.79,12,9.05,2.24,12.59,6.61,12.41,16.35a78.21,78.21,0,0,1-.67,10.38c-1.28,8.41-2.8,16.78-4.25,25.16a22.69,22.69,0,0,0,2.14,13.79c3,6.55,6,13.16,8.84,19.79,3.17,7.32,6.28,14.7,12.11,20.42,6.82,6.69,13.94,13.08,20.56,19.95a22.25,22.25,0,0,1,6.08,19.71c-1.2,7.8-5.83,14.13-8.46,21.29s-5.67,14.1-7.08,21.43c-1,5.15.15,10.82.89,16.18.69,5,1.1,9.78-.81,14.58-2.26,5.65-4.43,11.33-6.58,17-1.66,4.42.05,6.92,4.76,6.47a18.28,18.28,0,0,0,13.7-8.56c2.74-4.22,4.07-9.34,6.17-14,2.24-5,4.59-9.78,9.25-13.17,4.81-3.49,10.35-4.21,15.9-5.36,6.54-1.36,13.23-3,13.72-11.71a6.33,6.33,0,0,1,.56-1.47c2-5.86,6.82-9.15,11.66-12.31,4.38-2.86,9.28-5,13.31-8.3a136.59,136.59,0,0,0,14.25-13.81c3.43-3.76,6.55-7.81,8-13a49.87,49.87,0,0,1,4.54-11,58.75,58.75,0,0,1,6.76-9.4c5.93-6.93,12.08-13.68,18.11-20.53,3.53-4,7.07-8,10.48-12.11,2-2.43,1.16-5.07-.83-6.75-6.47-5.48-12.79-11.3-19.92-15.79-8.12-5.11-17.06-8.92-25.63-13.33-6.16-3.17-11.43-6.91-11.8-14.89-.15-3.41-1.37-6.8-2.37-10.12-.91-3-3.53-4.79-5.75-4.26-3.07.73-6.17,1.36-9.18,2.31a13.55,13.55,0,0,1-13.52-3c-3.43-3-6.13-6.83-9-10.43-3.48-4.37-7.26-7.38-13.46-7.29-13.36.22-26.73-.06-40.08-.45-7-.21-13.11-3.17-18.75-7.38a155.08,155.08,0,0,0-15.26-9.92c-4.81-2.76-10-4.78-14.87-7.49-3.65-2-7.31-4.29-8.94-8.52-1.77-4.58-3.62-9.14-5.2-13.79-1.46-4.31-2.58-5-6.6-3-1.7.82-3.32,1.83-5.05,2.56-5.12,2.14-10.76,3.5-15.53.48a62,62,0,0,1-13.61-12c-4.53-5.29-4.83-11.55-1.45-18,3.64-6.9,9.17-12,15.29-16.46,5.3-3.9,11.06-6.87,17.87-7,4.25-.08,8.46.19,11.77,3.43q6,5.91,12,11.87c1.83,1.83,4.67,2.22,6,.2,2.73-4.05,5.74-8.14,7.33-12.68,2.1-6,5.19-10,11.55-11.51a16.34,16.34,0,0,0,10.57-7.9c2.49-4.36,4.37-9.05,6.69-13.51,3.85-7.42,9.06-12.64,18.16-13.66a61.82,61.82,0,0,0,25.26-8.25c4.47-2.7,9.09-4.69,14.51-4.52a22.56,22.56,0,0,0,8.08-.92c5.62-2,11-4.81,16.6-6.75,4.94-1.7,10.26-2.27,14.87,1A121.06,121.06,0,0,1,363,59.75c6,5.39,13.78,6.18,20.55,1.79,2.26-1.47,2.48-2.75.6-4-4.81-3.18-9.5-6.57-14.5-9.41-12.85-7.32-26-14.11-40.06-18.81a276.74,276.74,0,0,0-34.92-9.48C280.08,17,265.33,15,250.38,15.86ZM67.4,277.79a24.37,24.37,0,0,0-4.54-14.13c-5.22-7.22-12.27-12.58-20-16.89-7-3.86-14.06-7.46-21.1-11.17-4.11-2.16-5.75-1.48-5.68,3.24.22,13.23.22,26.52,1.48,39.67A153.12,153.12,0,0,0,25,314.84c3.58,10.17,6.54,20.62,10.85,30.47,4.1,9.37,9.48,18.19,14.52,27.13,6.09,10.83,13.75,20.55,21.83,29.95a21.44,21.44,0,0,0,3,2.44,21.41,21.41,0,0,0,2.49-3.75c2.47-6.13,2.08-12.6,1.91-19-.15-5.5,0-10.85,2.51-16a32.67,32.67,0,0,0,3.62-10.93c.67-7-1.82-13.5-5.25-19.44C78.07,331.54,74.72,328,72,324c-4.29-6.23-8.69-12.47-8.6-20.52a60.38,60.38,0,0,1,.66-9.42C65,288.6,66.26,283.21,67.4,277.79Zm417.09-37.63.61-.1c-1.4-10.61-2.59-21.25-4.25-31.81a203.76,203.76,0,0,0-4.35-20c-1.51-5.77-3.42-11.45-5.45-17.06-2.18-6-4.42-12-7.16-17.78-3.5-7.36-7.29-14.63-11.42-21.66-4-6.86-8.62-13.38-13.05-20a1.84,1.84,0,0,0-3.47.85c.23,2.57.09,5.49,1.29,7.59a62.4,62.4,0,0,1,8.42,35.59,102,102,0,0,0,1.4,21.91c1.44,8.94,7.13,16,12.53,22.9,6.68,8.54,10,17.84,8.79,28.71-.4,3.75-.24,7.56-.31,11.34a13.37,13.37,0,0,0,6.09,11.79q2.83,2,5.71,3.92c3.14,2.09,4.47,1.49,4.59-2.34C484.6,249.42,484.49,244.78,484.49,240.16Z"/></svg>