<svg id="Слой_2" data-name="Слой 2" xmlns="http://www.w3.org/2000/svg" xmlns:xlink="http://www.w3.org/1999/xlink" viewBox="0 0 500 500"><defs><style>.cls-1{fill:url(#Безымянный_градиент_11);}.cls-2{fill:#fff;}</style><linearGradient id="Безымянный_градиент_11" x1="59.28" y1="256.15" x2="543.47" y2="256.15" gradientTransform="translate(-6.13 551.36) rotate(-90)" gradientUnits="userSpaceOnUse"><stop offset="0" stop-color="#1070e9"/><stop offset="1" stop-color="#0695fb"/></linearGradient></defs><circle class="cls-1" cx="250.03" cy="249.99" r="242.1"/><path class="cls-2" d="M170.37,391.62c-4.45-1.08-9-1.91-13-4.16-13.17-7.27-20.68-18.32-20.72-33.43q-.26-104,0-208a37.81,37.81,0,0,1,37.94-37.65q58.35-.06,116.71-.05A4.52,4.52,0,0,1,295,110q33.5,37.55,67.09,75a5.39,5.39,0,0,1,1.48,3.93q-.06,82-.05,164c0,18.81-11.88,33.57-30.09,37.88-1.24.29-2.61,0-3.73.82ZM156.54,250q0,51.16,0,102.34c0,11.58,7.62,19.24,19.2,19.24q74.26,0,148.53,0c11.57,0,19.22-7.66,19.23-19.22q0-74.54.06-149.08c0-2.18-.58-2.69-2.71-2.68-19.54.09-39.09,0-58.63.11-2.58,0-3.4-.47-3.38-3.25.13-21.94,0-43.88.15-65.82,0-2.77-.79-3.25-3.37-3.24-33,.09-66,.05-99,.06-12.73,0-20.08,7.34-20.08,20ZM299.39,145.09a8.12,8.12,0,0,0-.28,1.2c0,10.78,0,21.55-.05,32.33,0,1.76.74,1.85,2.13,1.85,9.3-.05,18.6,0,27.9-.05.48,0,1.13.31,1.45-.52Z"/><path class="cls-2" d="M250.26,224.1c23,0,45.91,0,68.87-.06,2.28,0,3,.5,2.87,2.84-.2,4.51-.06,9-.06,13.55,0,3.84,0,3.84-3.71,3.84h-104c-11.25,0-22.49-.05-33.74,0-1.92,0-2.5-.46-2.45-2.42.15-5.16.16-10.33,0-15.49-.07-2.07.69-2.34,2.51-2.34Q215.42,224.15,250.26,224.1Z"/><path class="cls-2" d="M249.88,287.87c-23,0-46.09,0-69.14.05-2.17,0-2.75-.56-2.68-2.71.17-4.88.19-9.77,0-14.65-.09-2.29.52-2.87,2.84-2.86q46.46.14,92.92.06c15.22,0,30.43.05,45.64-.06,2.1,0,2.61.55,2.54,2.59-.16,5-.17,10,0,14.93.08,2.16-.53,2.71-2.69,2.7C296.16,287.84,273,287.87,249.88,287.87Z"/><path class="cls-2" d="M250,331.5c-23.05,0-46.09,0-69.14.05-2.3,0-2.93-.52-2.84-2.84.2-5,.16-9.95,0-14.93-.05-1.93.46-2.42,2.41-2.41,16.59.08,33.18.05,49.78.05q44.52,0,89.05-.05c2.15,0,2.77.51,2.69,2.68-.17,5-.16,10,0,14.93.07,2.07-.46,2.58-2.55,2.57C296.31,331.46,273.17,331.5,250,331.5Z"/></svg>