<svg id="Слой_2" data-name="Слой 2" xmlns="http://www.w3.org/2000/svg" viewBox="0 0 500 500"><defs><style>.cls-1{fill:#fff;}</style></defs><path class="cls-1" d="M6.3,131.19c-.41-10.41,2.33-20.33,6.25-29.94a122,122,0,0,1,19-31.09,158.43,158.43,0,0,1,16.9-17.64C58.08,43.9,68,35.52,79.1,28.83a86.82,86.82,0,0,1,26.41-11,36.52,36.52,0,0,1,22.36,2.26,88,88,0,0,1,22.19,13.35,133.05,133.05,0,0,1,13.85,13.64c9.33,10.46,17,22.08,24.66,33.73,3.56,5.42,6.66,11.11,9.84,16.75,4.13,7.33,7.8,14.89,11.44,22.46,3.15,6.56,5.72,13.33,5.32,20.81a27.77,27.77,0,0,1-6.95,17.29c-5.59,6.37-12.46,11-19.88,15-4.64,2.5-9,5.49-13.88,7.61-7.08,3.11-14.19,6.14-21.38,9-9.17,3.61-12.11,10-12,18.88,0,3.13,1.91,5.78,3.25,8.43a173.55,173.55,0,0,0,14.14,23.41c4.4,6.09,9,12,13.92,17.74,5.52,6.41,11.45,12.43,17.08,18.72,6.08,6.77,12.77,12.87,19.38,19a344,344,0,0,0,43.36,34.26q14.72,9.8,30,18.69c3.09,1.81,6,4,9.53,4.95,5.48,1.54,10.46,0,15.17-2.89,5.13-3.17,8.52-7.75,11.26-13,6.6-12.71,12.74-25.67,20.8-37.58,4.7-7,10.06-13.07,18-16.35a33.34,33.34,0,0,1,9.55-2.29c5.47-.53,10.88-.26,15.94,1.71a92.81,92.81,0,0,1,17.05,8.76c7.66,5,15.53,9.6,23,14.78,7.88,5.44,15.42,11.38,23.13,17.06,7.89,5.82,15.49,12,22.85,18.48a119.11,119.11,0,0,1,15.65,15.94c3.38,4.33,6.79,8.52,8.33,13.91,1.66,5.83,1.47,11.7.78,17.67a55.82,55.82,0,0,1-6.69,19.89,126.79,126.79,0,0,1-13.53,19.63,157.49,157.49,0,0,1-14.74,15.59,201.46,201.46,0,0,1-22.21,18.16A121.94,121.94,0,0,1,416,475a94,94,0,0,1-25.85,7.78,85.81,85.81,0,0,1-17.66.82,117.06,117.06,0,0,1-23-4.12,303.59,303.59,0,0,1-38.7-13.83c-10.07-4.31-20-8.87-29.71-13.94-13.82-7.22-27.47-14.76-40.71-23-8.83-5.52-17.67-11-26.26-16.9C203.51,404.49,193,397,182.89,389.06c-7.14-5.61-14.22-11.26-21.13-17.16-7.74-6.6-15.06-13.64-22.58-20.47-6.6-6-12.54-12.61-18.67-19-6.92-7.24-13.42-14.89-19.86-22.58C89.08,296,78.23,281.66,67.84,267,59.43,255,51.58,242.73,44.17,230.17c-6.74-11.43-13.18-23.06-18.79-35.1-5.15-11-10.11-22.19-13.69-33.89C8.71,151.43,5.94,141.66,6.3,131.19Zm21.89,1.16c-.68,3.92.51,8.42,1.63,12.77,3.44,13.4,8.63,26.19,14.55,38.67,4.39,9.26,9.21,18.29,14.26,27.2,5.33,9.4,10.9,18.66,16.79,27.71Q87.54,257.29,101,274.92q10.53,13.81,21.77,27,9.06,10.67,18.77,20.76Q155.29,337,170.15,350q13,11.39,26.66,22,13.14,10.24,26.9,19.64c12.11,8.26,24.43,16.17,37.08,23.61,9.58,5.63,19.31,11,29.13,16.19,7.21,3.81,14.63,7.19,22,10.6,9.5,4.36,19.15,8.33,29,11.77a171.33,171.33,0,0,0,24,6.59,62.72,62.72,0,0,0,22.13.78,77.87,77.87,0,0,0,26.37-9.77c11.87-6.82,22.29-15.47,32.31-24.64a110.83,110.83,0,0,0,14-16c5.19-7,10.25-14.17,11.68-23.08.59-3.69,1.27-7.54-1-10.93a58.84,58.84,0,0,0-5.54-7.05,174.29,174.29,0,0,0-19.55-18c-9.44-7.57-18.86-15.16-28.85-22-13.21-9.07-26.27-18.38-40.79-25.32a12.08,12.08,0,0,0-12.18.73c-2.78,1.72-4.37,4.5-6.18,7-8,11.19-13.54,23.76-19.89,35.87a56.77,56.77,0,0,1-14.61,18.25,44.17,44.17,0,0,1-25.07,9.91,35.17,35.17,0,0,1-19.4-4.18c-10.62-5.75-21-12-31.1-18.58q-15.57-10.12-30.22-21.61A346.88,346.88,0,0,1,190,308.41c-9.92-9.56-19.81-19.17-28.83-29.63-5.1-5.91-10.21-11.78-15-18a206.65,206.65,0,0,1-23.12-37.3,39.89,39.89,0,0,1-2.87-26.21c3-13.92,11.61-22.84,24.69-28,7.35-2.87,14.67-5.88,21.72-9.4,8.09-4,16.2-8.2,23.07-14.19,2.34-2,4.5-4.64,3.16-8.45a75.28,75.28,0,0,0-3.31-8.7A366.88,366.88,0,0,0,171,94.43c-7.35-11.67-15-23.1-24.19-33.4-7.55-8.49-16.23-15.67-26.75-20.34-2.86-1.27-5.86-2.11-9-1.51a57.82,57.82,0,0,0-14.34,5.2A103.13,103.13,0,0,0,77.28,57.24c-6.7,5.43-13.36,10.9-19.65,16.81a121,121,0,0,0-8.36,9.3,97.62,97.62,0,0,0-12.45,18C31.83,110.83,27.79,120.61,28.19,132.35Z"/></svg>