<svg id="Слой_1" data-name="Слой 1" xmlns="http://www.w3.org/2000/svg" viewBox="0 0 500 500"><defs><style>.cls-1{fill:#003b67;}.cls-2{fill:#fff;}</style></defs><rect class="cls-1" width="500" height="500" rx="29.35"/><path class="cls-2" d="M289.74,456.73c-5-1.89-6.61-5.65-6.61-11,.12-54.68,0-109.38.15-164.07,0-3.51-.64-4.74-4.49-4.68-15.69.26-31.38.12-47.13.1-7.77,0-10.63-2.86-10.64-10.73q0-31.63,0-63.27c0-7.71,3-10.68,10.73-10.68,16,0,32-.08,47.89,0,2.77,0,3.6-.61,3.58-3.5-.08-17.2-.5-34.42.27-51.59,1.06-23.5,8.18-45,24.11-63,13.48-15.09,30.5-23.82,50-28a124.63,124.63,0,0,1,26-2.47q24.56,0,49.13,0c8.26,0,11.14,2.89,11.3,11.12v57.64c-.15,8.36-2.91,11-11.24,11.12-13.69.19-27.4-.69-41,.57-7.43.67-14.29,2.7-18.28,9.85a25.89,25.89,0,0,0-3.08,12.39c-.19,14.38-.07,28.75-.25,43.13,0,2.73,1.29,2.59,3.17,2.58q28.38,0,56.78,0c8.49,0,11.27,2.81,11.47,11.4v62.48c-.2,8.08-3,10.81-11.15,10.81-18.79,0-37.58.1-56.37-.08-3.31,0-3.89,1-3.88,4,.09,54.69,0,109.38.12,164.07,0,5.28-1.33,9.42-6.38,11.58Z"/></svg>