<svg id="Слой_1" data-name="Слой 1" xmlns="http://www.w3.org/2000/svg" viewBox="0 0 500 500"><defs><style>.cls-1{fill:#003b67;}.cls-2{fill:#fff;}</style></defs><rect class="cls-1" width="500" height="500" rx="29.35"/><path class="cls-2" d="M347.71,416v-5c0-35.91.17-71.83-.12-107.75A146.48,146.48,0,0,0,345,276.14c-3.45-17.47-13.68-25.67-31.51-26.47-11.51-.52-22.24,1.72-30.54,10.39-7,7.33-10.1,16.62-11.15,26.49a220,220,0,0,0-1.21,22.52c-.12,34.19-.05,68.38-.05,102.57v4.55H201.74V194.41h66v29.46l.8.19a23.14,23.14,0,0,0,1.69-2.15c11.93-18.93,29.52-29,51.22-32.21a102.6,102.6,0,0,1,46.12,3.78c21.69,6.78,34.92,21.84,41.9,43,5.09,15.4,6.91,31.37,7,47.44.3,43.33.19,86.65.25,130,0,.61-.1,1.22-.17,2.19Z"/><path class="cls-2" d="M157.85,416.16H89.33V194.43h68.52Z"/><path class="cls-2" d="M163.41,123.74A40,40,0,1,1,123.3,83.85,39.86,39.86,0,0,1,163.41,123.74Z"/></svg>