<svg id="Слой_1" data-name="Слой 1" xmlns="http://www.w3.org/2000/svg" viewBox="0 0 500 500"><defs><style>.cls-1{fill:#003b67;}.cls-2{fill:#fff;}</style></defs><rect class="cls-1" width="500" height="500" rx="29.35"/><path class="cls-2" d="M257.57,88.82c17.65-.27,35.17-.13,52.7-.27,1.07,20.62,8.49,41.65,23.58,56.21,15.1,15,36.39,21.83,57.15,24.12V223.2c-19.41-.67-38.95-4.72-56.61-13.07a167.7,167.7,0,0,1-21.83-12.54c-.14,39.36.13,78.71-.27,117.93a103,103,0,0,1-18.2,53.11c-17.65,25.88-48.25,42.72-79.65,43.26-19.28,1.08-38.55-4.18-55-13.88-27.23-16-46.37-45.42-49.2-77-.27-6.74-.4-13.48-.13-20.08a101.1,101.1,0,0,1,34.77-66.85c22.37-19.41,53.64-28.71,82.89-23.19.27,19.95-.54,39.9-.54,59.85-13.34-4.32-29-3.1-40.7,5a46.84,46.84,0,0,0-18.33,23.59c-2.83,6.87-2,14.42-1.89,21.7,3.24,22.1,24.53,40.7,47.17,38.68,15.1-.13,29.52-8.89,37.34-21.7,2.56-4.45,5.39-9,5.52-14.28,1.35-24.13.81-48.12.95-72.25.13-54.31-.14-108.5.27-162.68Z"/></svg>