<svg id="Слой_2" data-name="Слой 2" xmlns="http://www.w3.org/2000/svg" viewBox="0 0 500 500"><defs><style>.cls-1{fill:#fff;}</style></defs><path class="cls-1" d="M431,166.22c-.28,39.4-10.33,68.44-26,95.74q-61,106.1-122.17,212c-14.45,25-26.91,25-41.62-.43C199.69,401.81,157.82,330.24,117.09,258,73.41,180.56,91.19,90.39,158.73,40.7c72.36-53.23,166.25-45.62,227.8,19A159.35,159.35,0,0,1,431,166.22ZM262.89,40.69C162.24,40.47,96.7,141.21,142.29,230.54,176.53,297.63,216.67,361.71,254,427.23c4.93,8.64,9.14,11.6,15.11,1.1,38.6-67.89,81.18-133.86,114.89-204.08C425.76,137.25,359.68,40.91,262.89,40.69Z"/><path class="cls-1" d="M341.31,172.58c-.13,44.32-35.93,80-79.81,79.53a79.77,79.77,0,0,1-79.11-80.52c.26-44.14,36.35-79.9,80.11-79.37C307.31,92.76,341.44,127.56,341.31,172.58Zm-78.72,44.23c25.18-.26,44.73-19.94,44.61-44.91-.13-24.44-20.45-44.84-44.9-45.06A44.86,44.86,0,0,0,217,171.13C216.78,197.72,236.1,217.09,262.59,216.81Z"/></svg>