<svg id="Слой_2" data-name="Слой 2" xmlns="http://www.w3.org/2000/svg" viewBox="0 0 500 500"><defs><style>.cls-1{fill:#fff;}</style></defs><path class="cls-1" d="M423.81,250q0-81,0-162.1c0-21.32.94-22.19,22.81-22.2,9.86,0,19.73-.06,29.59,0,15.92.11,18.47,2.59,18.49,18.95q.09,112.58,0,225.14c0,35.17,0,70.34,0,105.5,0,16.41-2.48,18.84-18.43,19q-17.37.12-34.74,0c-15.28-.12-17.67-2.51-17.69-18.27Q423.75,333,423.81,250Z"/><path class="cls-1" d="M390.53,295.51q0,59.16,0,118.33c0,18.26-2,20.21-19.65,20.35-11.14.09-22.29.12-33.44,0-15.18-.15-18.12-2.91-18.17-18-.12-42.88-.05-85.75-.05-128.62,0-37.3-.05-74.6.06-111.9.05-15.48,3.32-18.57,19.05-18.67,11.58-.07,23.16-.12,34.73,0,14,.16,17.34,3.4,17.39,17.63.14,40.3.05,80.6.05,120.9Z"/><path class="cls-1" d="M286,331.06c0,28.72-.28,57.45.14,86.16.18,11.91-4.25,17.53-16.53,17.11-12.84-.44-25.72-.32-38.57,0-10.59.24-15.94-4-15.92-15.1q.21-89.37,0-178.74c0-10.6,5.43-14.56,15.18-14.54,13.29,0,26.58.15,39.87-.06,11.39-.19,16.08,5,15.93,16.47C285.77,271.91,286,301.49,286,331.06Z"/><path class="cls-1" d="M182.09,356.8c0,19.7.09,39.4,0,59.09-.11,15.35-3,18.2-17.84,18.29-12.85.09-25.7-.19-38.54.08-9.53.19-14.68-4-14.69-13.57q-.12-64.87,0-129.75c0-8.9,4.82-13.25,13.74-13.22,13.71,0,27.42.25,41.11-.1,11.45-.29,16.43,5,16.33,16.23C182,314.83,182.1,335.82,182.09,356.8Z"/><path class="cls-1" d="M77.44,375.44c0,14.16-.27,28.31.1,42.45.29,11.25-4.16,16.78-15.88,16.43-13.28-.39-26.58-.33-39.87,0-10.22.24-15.2-4.33-15.2-14.49q0-44.37,0-88.76c0-9.35,4.32-14.46,14-14.46,14.15,0,28.3,0,42.45-.09,10.29-.07,14.63,5.15,14.47,15.22C77.26,346.28,77.44,360.87,77.44,375.44Z"/></svg>