<svg id="Слой_1" data-name="Слой 1" xmlns="http://www.w3.org/2000/svg" viewBox="0 0 500 500"><defs><style>.cls-1{fill:#003b67;}.cls-2{fill:#fff;}</style></defs><rect class="cls-1" width="500" height="500" rx="29.35"/><path class="cls-2" d="M436,135.15a127.16,127.16,0,0,1-30.48,33.39c-5.29,4-7.1,7.9-7,14.62.35,33.89-7.43,66.09-22.14,96.59-16.6,34.47-40.19,63.11-71.71,85a204.15,204.15,0,0,1-82.12,33.57c-39.9,7-79,4.16-117.18-9.83a188.07,188.07,0,0,1-41.05-20.65,176.83,176.83,0,0,0,34.2-.11c28.6-3.19,54.32-13.54,78.05-31.61-16.77-.82-31.3-5.78-44.06-15.4A77.45,77.45,0,0,1,105.36,283c11.33,1.4,22.22,1.62,33.83-1.53-18.22-4.37-32.66-13.27-43.86-27.22s-16.72-30.09-16.78-48.74a74.56,74.56,0,0,0,16.35,6.69,56.79,56.79,0,0,0,17.64,2.47c-16.43-11.89-27.1-27.17-31.43-46.48s-1.35-37.7,8.4-55.25c4.07,4.46,7.86,8.92,11.89,13.06q46.1,47.86,111,62.2a233.14,233.14,0,0,0,32.42,4.46c2.48.2,2.37-.63,2.05-2.61-3.72-22.8.5-43.86,15.16-62,18.58-23,42.94-32.43,72.28-28.14,16.09,2.35,29.87,9.63,41.41,21.07a4.47,4.47,0,0,0,4.76,1.38,154.75,154.75,0,0,0,42.63-16.19c.79-.46,1.65-.8,3.1-1.49-6,17.89-16.73,31.22-32.18,41.19,2.16.75,4.16-.14,6.17-.43s4.07-.64,6.09-1.06C416.49,142.32,426.26,138.73,436,135.15Z"/></svg>