<svg id="Слой_1" data-name="Слой 1" xmlns="http://www.w3.org/2000/svg" viewBox="0 0 500 500"><defs><style>.cls-1{fill:#003b67;}.cls-2{fill:#fff;}</style></defs><rect class="cls-1" width="500" height="500" rx="29.35"/><path class="cls-2" d="M332.52,419h-165c-3.45-.55-6.95-.91-10.36-1.68-38.28-8.62-62.86-31.77-73.36-69.62-1.35-4.93-1.86-10.1-2.76-15.17v-165c.55-3.45.91-6.95,1.68-10.36,8.61-38.29,31.77-62.86,69.62-73.36,4.93-1.35,10.1-1.86,15.17-2.76h165c3.45.55,7,.91,10.36,1.68,38.29,8.61,62.86,31.77,73.36,69.62,1.35,4.93,1.86,10.1,2.76,15.17v165c-.55,3.45-.91,7-1.68,10.36-8.61,38.29-31.77,62.86-69.62,73.36C342.75,417.6,337.58,418.1,332.52,419ZM250,389.26h73.25c7.73,0,15.36-.79,22.71-3.38,26.89-9.59,43-32.7,43.05-62,0-49.06.15-98.12-.14-147.18a72.46,72.46,0,0,0-3.41-22.31c-9.08-27-32.5-43.15-61.72-43.19-49.17-.06-98.34-.15-147.52.14a71.36,71.36,0,0,0-22,3.38c-26.92,9-43.17,32.35-43.27,61.35q-.18,74.07,0,148.17c0,22.15,8.75,40.08,26.71,53.23,11.49,8.41,24.59,11.83,38.72,11.81Q213.18,389.2,250,389.26Z"/><path class="cls-2" d="M250,162.84c47.86,0,87.2,39.44,87.07,87.2-.13,47.93-39.57,87.21-87.29,87-47.87-.24-86.84-39.26-86.91-87S202.14,162.81,250,162.84ZM307,250a57.06,57.06,0,1,0-57.11,57A57.11,57.11,0,0,0,307,250Z"/><path class="cls-2" d="M340.69,181.34a21.91,21.91,0,1,1,0-43.82c12.11,0,22.19,10.14,22,22.08A22.15,22.15,0,0,1,340.69,181.34Z"/></svg>